<?xml version="1.0" standalone="no"?>
<svg xmlns:xlink="http://www.w3.org/1999/xlink" id="wave" style="transform:rotate(0deg); transition: 0.3s" viewBox="0 0 1440 410" version="1.1" xmlns="http://www.w3.org/2000/svg"><defs><linearGradient id="sw-gradient-0" x1="0" x2="0" y1="1" y2="0"><stop stop-color="rgba(255, 125.79, 0, 1)" offset="0%"/><stop stop-color="rgba(255, 166, 0, 1)" offset="100%"/></linearGradient></defs><path style="transform:translate(0, 0px); opacity:1" fill="url(#sw-gradient-0)" d="M0,0L48,6.8C96,14,192,27,288,61.5C384,96,480,150,576,198.2C672,246,768,287,864,314.3C960,342,1056,355,1152,334.8C1248,314,1344,260,1440,211.8C1536,164,1632,123,1728,143.5C1824,164,1920,246,2016,232.3C2112,219,2208,109,2304,82C2400,55,2496,109,2592,170.8C2688,232,2784,301,2880,293.8C2976,287,3072,205,3168,170.8C3264,137,3360,150,3456,164C3552,178,3648,191,3744,191.3C3840,191,3936,178,4032,143.5C4128,109,4224,55,4320,41C4416,27,4512,55,4608,109.3C4704,164,4800,246,4896,232.3C4992,219,5088,109,5184,116.2C5280,123,5376,246,5472,246C5568,246,5664,123,5760,109.3C5856,96,5952,191,6048,225.5C6144,260,6240,232,6336,211.8C6432,191,6528,178,6624,205C6720,232,6816,301,6864,334.8L6912,369L6912,410L6864,410C6816,410,6720,410,6624,410C6528,410,6432,410,6336,410C6240,410,6144,410,6048,410C5952,410,5856,410,5760,410C5664,410,5568,410,5472,410C5376,410,5280,410,5184,410C5088,410,4992,410,4896,410C4800,410,4704,410,4608,410C4512,410,4416,410,4320,410C4224,410,4128,410,4032,410C3936,410,3840,410,3744,410C3648,410,3552,410,3456,410C3360,410,3264,410,3168,410C3072,410,2976,410,2880,410C2784,410,2688,410,2592,410C2496,410,2400,410,2304,410C2208,410,2112,410,2016,410C1920,410,1824,410,1728,410C1632,410,1536,410,1440,410C1344,410,1248,410,1152,410C1056,410,960,410,864,410C768,410,672,410,576,410C480,410,384,410,288,410C192,410,96,410,48,410L0,410Z"/></svg>